<svg width="236" height="236" viewBox="0 0 236 236" fill="none" xmlns="http://www.w3.org/2000/svg">
<g filter="url(#filter0_d_6_592)">
<path d="M117.207 61.0496L112.052 63.9908L107.08 61.9687L102.477 65.4614L96.7688 64.9099L93.0863 69.5056L86.8259 68.5865L84.9846 74.1013L78.356 75.0204L77.8036 81.2705L72.4638 82.1897L71.7273 89.1751L66.7558 91.1972L67.3082 98.3664L62.3368 102.227L64.5463 106.455L61.0479 111.786L63.9939 117.301L61.0479 121.896L64.5463 126.86L63.2574 132.007L67.3082 136.602V142.301L72.648 145.978V151.309L78.1718 153.515L79.0925 158.845L85.3529 159.397L87.5624 165.096H93.8228L96.953 169.691L102.845 168.588L106.896 172.449L112.604 169.691L117.391 173.184L122.547 170.427L127.887 172.449L131.937 168.588L137.83 169.691L141.328 165.096H147.404L149.246 159.397L155.322 158.478L156.611 152.412L162.503 150.573V144.875L167.106 142.117L166.554 136.051L170.973 132.007L169.5 126.492L173.182 122.264L170.236 116.749L173.182 111.97L169.5 107.19L170.973 102.411L167.106 98.1826V92.1163L161.95 88.8074V82.925L155.874 81.0867L155.138 75.3881L148.693 74.8366L146.299 69.5056H140.591L137.461 64.9099L131.385 65.4614L127.15 61.9687L121.994 63.9908L117.207 61.0496Z" fill="url(#paint0_linear_6_592)" stroke="#F5FAFF" stroke-width="2.64884"/>
<circle cx="117.115" cy="117.117" r="44.5889" fill="#F5FAFF" stroke="#F5FAFF" stroke-width="3.53179"/>
<path d="M96.3955 105.676H91.0703V111.406H96.3955V105.676Z" fill="#023D51"/>
<path d="M141.795 105.676H135.254V111.406H141.795V105.676Z" fill="#023D51"/>
<path d="M127.285 91.0696L132.07 94.7546L129.08 98.2276C131.567 100.822 132.95 104.28 132.938 107.875C133.04 110.54 132.283 113.167 130.779 115.369C129.275 117.572 127.103 119.232 124.584 120.107C131.028 122.268 132.861 126.609 132.861 130.352C132.861 138.9 124.468 143.164 116.056 143.164C105.792 143.164 99.2316 137.935 99.5017 129.214H106.061C105.869 134.114 110.827 136.739 116.056 136.796C120.899 136.796 126.051 134.867 126.051 130.352C126.051 125.837 122.037 123.541 116.172 123.541C105.985 123.541 99.1738 117.753 99.1738 107.875C99.1738 97.3787 107.644 92.092 116.172 92.092C119.14 92.0259 122.069 92.7732 124.642 94.2529L127.285 91.0696ZM105.772 107.99C105.772 114.222 110.499 117.637 116.152 117.637C118.711 117.783 121.223 116.907 123.135 115.201C125.047 113.495 126.204 111.099 126.349 108.54C126.495 105.982 125.619 103.47 123.913 101.558C122.207 99.6454 119.811 98.4891 117.253 98.3432H116.152C110.808 98.3432 105.772 101.469 105.772 107.99Z" fill="#023D51"/>
<mask id="path-6-inside-1_6_592" fill="white">
<path d="M157.783 44.6521C169.114 50.7975 178.868 59.4847 186.278 70.0324C193.689 80.5801 198.555 92.7013 200.494 105.445L198.712 105.716C196.814 93.248 192.053 81.3887 184.803 71.0689C177.553 60.7492 168.01 52.2497 156.923 46.2371L157.783 44.6521Z"/>
</mask>
<path d="M157.783 44.6521C169.114 50.7975 178.868 59.4847 186.278 70.0324C193.689 80.5801 198.555 92.7013 200.494 105.445L198.712 105.716C196.814 93.248 192.053 81.3887 184.803 71.0689C177.553 60.7492 168.01 52.2497 156.923 46.2371L157.783 44.6521Z" stroke="#F5FAFF" stroke-width="3.53179" mask="url(#path-6-inside-1_6_592)"/>
<mask id="path-7-inside-2_6_592" fill="white">
<path d="M63.8212 181.454C54.3573 173.373 46.8208 163.278 41.7638 151.907C36.7067 140.536 34.2571 128.178 34.5944 115.739L36.3968 115.787C36.0668 127.959 38.4635 140.049 43.4113 151.174C48.3591 162.299 55.7326 172.176 64.992 180.083L63.8212 181.454Z"/>
</mask>
<path d="M63.8212 181.454C54.3573 173.373 46.8208 163.278 41.7638 151.907C36.7067 140.536 34.2571 128.178 34.5944 115.739L36.3968 115.787C36.0668 127.959 38.4635 140.049 43.4113 151.174C48.3591 162.299 55.7326 172.176 64.992 180.083L63.8212 181.454Z" stroke="#F5FAFF" stroke-width="3.53179" mask="url(#path-7-inside-2_6_592)"/>
<path d="M34.0658 91.5778L33.4437 93.8601L42.7177 100.782L31.2188 102.021L30.5917 104.322L44.8756 102.508L45.458 100.372L34.0658 91.5778Z" fill="#F5FAFF"/>
<path d="M51.9358 80.0115L48.3303 86.7749L45.1907 85.1013L48.6271 78.6551L46.8903 77.7293L43.454 84.1754L40.2977 82.4929L43.8765 75.7795L42.0562 74.8092L37.4803 83.3929C41.3714 85.4672 45.2792 87.5503 49.1702 89.6246L53.7728 80.9908L51.9358 80.0115Z" fill="#F5FAFF"/>
<path d="M64.3043 66.96L58.3833 67.1263C59.7831 64.8893 59.0045 62.9395 57.5608 61.7159C55.8573 60.2721 53.2147 60.141 51.2325 62.4798C49.8988 64.0534 48.5629 65.6004 47.2292 67.174L57.3495 75.7513L58.7199 74.1344L55.2261 71.1733L57.0371 69.0366L63.137 68.9227L64.7399 67.0314L64.3043 66.96ZM52.7051 63.7278C53.8308 62.3997 55.2853 62.6153 56.1948 63.3862C57.1477 64.1937 57.4978 65.5076 56.3598 66.8502L53.7536 69.9252L50.0866 66.8173L52.7051 63.7278Z" fill="#F5FAFF"/>
<path d="M73.4257 58.6276L65.4346 48.0621L63.7592 49.3293L71.7503 59.8948L73.4257 58.6276Z" fill="#F5FAFF"/>
<path d="M86.3345 51.2294L84.2744 46.4915L90.5915 43.7446L89.8067 41.9397L83.4896 44.6866L81.8822 40.99L88.5291 38.0998L87.7066 36.2081L79.1159 39.9435L84.3908 52.0746L86.3345 51.2294Z" fill="#F5FAFF"/>
<path d="M103.645 46.0789L101.368 33.029L99.2983 33.3901L101.576 46.4401L103.645 46.0789Z" fill="#F5FAFF"/>
<path d="M126.677 43.619L119.02 43.2821L119.176 39.7277L126.474 40.0488L126.561 38.0826L119.263 37.7615L119.42 34.1882L127.021 34.5226L127.111 32.4618L117.393 32.0343C117.2 36.4394 117.005 40.8635 116.811 45.2686L126.586 45.6987L126.677 43.619Z" fill="#F5FAFF"/>
<path d="M135.853 33.7751L132.394 46.5628C133.929 46.9778 135.701 47.4571 137.235 47.8721C141.711 49.0827 144.605 46.3562 145.406 43.1029C146.206 39.9277 145.06 36.2653 140.694 35.0844L135.853 33.7751ZM137.352 36.2782L140.165 37.0391C143.179 37.8544 143.912 40.3658 143.383 42.5362C142.831 44.798 140.893 46.7441 137.769 45.8992L134.955 45.1382L137.352 36.2782Z" fill="#F5FAFF"/>
<path d="M83.1082 179.112L81.4797 178.515L76.3861 192.417L77.9352 192.984L78.6695 191.226C78.9565 192.841 80.1536 194 81.6034 194.531C84.4235 195.564 87.2649 194.511 88.451 191.273C89.6589 187.977 88.149 185.396 85.3488 184.37C83.9586 183.861 82.137 183.914 80.9544 184.99L83.1082 179.112ZM84.6694 185.856C86.5759 186.554 87.6665 188.373 86.8225 190.677C85.9929 192.941 83.9709 193.664 82.0644 192.966C80.1181 192.252 79.1128 190.262 79.8987 188.117C80.67 186.012 82.7429 185.15 84.6694 185.856Z" fill="#F5FAFF"/>
<path d="M103.373 188.992L101.501 188.649L98.2499 193.601L96.6138 196.312L96.0276 193.173L94.9889 187.456L93.0541 187.102L95.3384 197.992L92.2809 202.593L94.1117 202.928L103.373 188.992Z" fill="#F5FAFF"/>
<path d="M125.152 193.117L124.389 184.266L117.414 184.868L117.559 186.554L122.722 186.108L123.34 193.273C123.572 195.97 122.08 197.861 119.446 198.088C116.832 198.314 115.001 196.773 114.77 194.097L112.958 194.253C113.284 198.025 116.054 200.122 119.595 199.816C123.282 199.498 125.537 196.841 125.152 193.117Z" fill="#F5FAFF"/>
<path d="M130.015 192.997C130.856 196.056 133.647 197.592 136.666 196.762C139.704 195.927 141.318 193.18 140.478 190.121C139.62 187.001 136.864 185.433 133.784 186.279C130.786 187.103 129.158 189.876 130.015 192.997ZM138.826 190.575C139.388 192.702 138.314 194.62 136.234 195.192C134.174 195.758 132.27 194.658 131.688 192.537C131.071 190.294 132.165 188.37 134.225 187.803C136.244 187.248 138.209 188.332 138.826 190.575Z" fill="#F5FAFF"/>
<path d="M141.998 179.188L140.432 179.933L146.797 193.301L148.286 192.592L147.544 190.837C148.898 191.762 150.564 191.718 151.958 191.055C154.67 189.764 155.906 186.996 154.424 183.884C152.915 180.714 150.015 179.986 147.322 181.268C145.985 181.904 144.749 183.243 144.689 184.84L141.998 179.188ZM147.908 182.793C149.741 181.92 151.803 182.414 152.858 184.629C153.895 186.806 152.996 188.757 151.163 189.63C149.291 190.521 147.166 189.846 146.184 187.783C145.22 185.759 146.055 183.675 147.908 182.793Z" fill="#F5FAFF"/>
<path d="M163.454 186.451L162.097 187.427C163.688 189.748 166.489 189.765 169.047 187.925C171.297 186.308 172.675 183.623 171.094 181.425C170.217 180.206 168.765 179.635 166.77 180.34C168.036 178.622 167.712 176.615 166.675 175.172C165.786 173.936 164.813 173.489 163.6 173.215L163.747 171.39L162.183 171.317L162.063 173.07C161.136 173.085 159.975 173.608 159.202 174.164C157.021 175.732 155.733 178.795 157.746 181.594C159.648 184.238 162.579 184.475 165.241 182.56C166.821 181.424 168.693 181.094 169.681 182.467C170.743 183.944 169.598 185.576 168.138 186.625C166.58 187.72 164.639 188.1 163.454 186.451ZM159.137 180.594C157.717 178.619 158.617 176.538 160.128 175.452C161.725 174.303 163.918 174.237 165.314 176.177C166.487 177.809 166.172 180.015 164.369 181.312C162.669 182.534 160.567 182.509 159.137 180.594Z" fill="#F5FAFF"/>
<path d="M179.504 168.082L177.934 168.175C178.051 169.265 177.378 170.619 176.55 171.466C175.145 172.902 173.174 173.194 171.665 171.984L177.876 165.633C175.178 162.432 172.071 162.796 169.838 165.079C167.634 167.333 167.67 170.533 169.923 172.736C172.298 175.058 175.407 174.934 177.67 172.62C178.808 171.455 179.642 169.726 179.489 168.098L179.504 168.082ZM175.679 165.792L170.622 170.964C169.392 169.347 169.715 167.444 170.986 166.143C172.421 164.677 174.183 164.447 175.694 165.807L175.679 165.792Z" fill="#F5FAFF"/>
<path d="M175.304 154.231L174.442 155.748L176.774 157.432L175.549 159.13L176.749 159.997L177.975 158.299L182.45 161.531C184.319 162.881 186.002 162.791 187.28 160.949C187.671 160.371 187.906 159.757 188.057 159.005L186.594 158.575C186.51 159.088 186.321 159.604 186.048 159.981C185.317 160.993 184.448 160.86 183.453 160.142L178.978 156.91L180.885 154.27L179.684 153.403L177.79 156.026L175.304 154.231Z" fill="#F5FAFF"/>
<path d="M178.683 146.663L177.897 148.185L191.053 154.978L191.848 153.437L186.925 150.894C185.233 150.021 184.539 148.091 185.413 146.4C186.286 144.709 187.805 144.303 189.628 145.244L194.721 147.874L195.507 146.352L190.395 143.712C187.839 142.392 185.45 142.777 184.101 145.39C183.509 146.583 183.282 148.037 184.096 149.457L178.702 146.672L178.683 146.663Z" fill="#F5FAFF"/>
<path d="M198.925 131.61L197.566 132.4C198.162 133.321 198.171 134.832 197.814 135.962C197.207 137.877 195.579 139.026 193.686 138.626L196.368 130.157C192.517 128.516 189.907 130.242 188.943 133.286C187.992 136.291 189.466 139.132 192.471 140.083C195.637 141.085 198.357 139.572 199.333 136.487C199.825 134.935 199.789 133.015 198.919 131.63L198.925 131.61ZM194.478 131.29L192.295 138.186C190.469 137.297 189.899 135.453 190.448 133.719C191.067 131.763 192.537 130.764 194.499 131.296L194.478 131.29Z" fill="#F5FAFF"/>
<path d="M191.73 122.968L191.482 124.556L201.806 126.167L202.073 124.454L196.326 123.557C194.425 123.26 193.47 121.698 193.706 120.044C193.817 119.334 194.09 118.82 194.551 118.335L193.209 117.333C192.63 117.885 192.18 118.714 192.061 119.616C191.875 120.807 192.052 122.141 193.279 123.06L191.713 122.944L191.73 122.968Z" fill="#F5FAFF"/>
</g>
<defs>
<filter id="filter0_d_6_592" x="-20" y="-20" width="276" height="276" filterUnits="userSpaceOnUse" color-interpolation-filters="sRGB">
<feFlood flood-opacity="0" result="BackgroundImageFix"/>
<feColorMatrix in="SourceAlpha" type="matrix" values="0 0 0 0 0 0 0 0 0 0 0 0 0 0 0 0 0 0 127 0" result="hardAlpha"/>
<feOffset/>
<feGaussianBlur stdDeviation="10"/>
<feComposite in2="hardAlpha" operator="out"/>
<feColorMatrix type="matrix" values="0 0 0 0 1 0 0 0 0 1 0 0 0 0 1 0 0 0 0.96 0"/>
<feBlend mode="normal" in2="BackgroundImageFix" result="effect1_dropShadow_6_592"/>
<feBlend mode="normal" in="SourceGraphic" in2="effect1_dropShadow_6_592" result="shape"/>
</filter>
<linearGradient id="paint0_linear_6_592" x1="61.0479" y1="111.777" x2="173.182" y2="111.184" gradientUnits="userSpaceOnUse">
<stop stop-color="#2598EF"/>
<stop offset="1" stop-color="#48CB46"/>
</linearGradient>
</defs>
</svg>
